<svg width="120" height="104" viewBox="0 0 120 104" fill="none" xmlns="http://www.w3.org/2000/svg">
<path opacity="0.1" d="M119.45 71.3837C116.172 54.8562 96.9704 41.6468 93.2252 24.4239C86.4184 2.51172 63.9827 -0.952636 49.4034 8.56381C26.3026 23.6427 50.9464 27.3847 5.65322 63.0606C-5.53069 71.8696 -1.96699 110.755 33.2169 101.831C52.1513 97.0283 57.9073 96.3545 66.4242 95.5636C87.8911 93.5706 124.951 99.1273 119.45 71.3837Z" fill="#DFCA72"/>
<path d="M93.8031 75.5264L60.6238 93.0501L27.4946 75.5264V49.0642H93.8031V75.5264Z" fill="white"/>
<path d="M60.6232 93.3188C60.5793 93.3189 60.5361 93.3081 60.4974 93.2874L27.3693 75.7637C27.3262 75.741 27.2901 75.707 27.2649 75.6653C27.2397 75.6237 27.2263 75.5759 27.2261 75.5272V49.0642C27.2261 48.9929 27.2544 48.9245 27.3048 48.8741C27.3552 48.8237 27.4236 48.7954 27.4948 48.7954H93.8025C93.8738 48.7954 93.9421 48.8237 93.9926 48.8741C94.043 48.9245 94.0713 48.9929 94.0713 49.0642V75.5263C94.0711 75.5751 94.0577 75.6228 94.0324 75.6645C94.0072 75.7061 93.9711 75.7401 93.9281 75.7629L60.7488 93.2868C60.7102 93.3076 60.667 93.3186 60.6232 93.3188ZM27.7628 75.3649L60.6232 92.7462L93.5337 75.3644V49.333H27.7628V75.3649Z" fill="black"/>
<path d="M93.8036 43.386L60.6243 25.8623L75.5338 18.6758L108.713 36.1997L93.8036 43.386Z" fill="white"/>
<path d="M93.8042 43.6546C93.7605 43.6546 93.7174 43.644 93.6786 43.6236L60.4993 26.0997C60.4554 26.0765 60.4187 26.0415 60.3935 25.9986C60.3682 25.9558 60.3553 25.9068 60.3562 25.8571C60.3572 25.8074 60.3718 25.7589 60.3987 25.717C60.4255 25.6751 60.4634 25.6415 60.5082 25.6198L75.4177 18.4333C75.4556 18.4149 75.4973 18.4058 75.5394 18.4065C75.5815 18.4073 75.6228 18.418 75.66 18.4378L108.839 35.9617C108.883 35.985 108.92 36.0199 108.945 36.0628C108.97 36.1056 108.983 36.1546 108.982 36.2043C108.982 36.254 108.967 36.3025 108.94 36.3444C108.913 36.3862 108.875 36.4198 108.83 36.4414L93.921 43.6279C93.8846 43.6455 93.8446 43.6546 93.8042 43.6546ZM61.2212 25.8727L93.8098 43.0844L108.117 36.1881L75.5288 18.9769L61.2212 25.8727Z" fill="black"/>
<path d="M27.4957 43.3857L60.675 25.8621L45.7655 18.6755L12.5862 36.1994L27.4957 43.3857Z" fill="white"/>
<path d="M27.495 43.6544C27.4546 43.6544 27.4147 43.6453 27.3783 43.6277L12.4696 36.4412C12.4248 36.4196 12.3869 36.386 12.3601 36.3441C12.3333 36.3022 12.3186 36.2538 12.3177 36.204C12.3168 36.1543 12.3297 36.1053 12.3549 36.0625C12.3802 36.0197 12.4168 35.9847 12.4608 35.9615L45.6401 18.4376C45.6773 18.4178 45.7186 18.4071 45.7607 18.4063C45.8028 18.4055 45.8445 18.4147 45.8824 18.4331L60.7919 25.6196C60.8367 25.6412 60.8746 25.6748 60.9014 25.7167C60.9283 25.7586 60.9429 25.8071 60.9439 25.8568C60.9448 25.9066 60.9319 25.9556 60.9066 25.9984C60.8814 26.0412 60.8447 26.0762 60.8008 26.0995L27.6215 43.6234C27.5825 43.6439 27.5391 43.6545 27.495 43.6544ZM13.1818 36.1883L27.4894 43.0846L60.0781 25.8729L45.7704 18.9766L13.1818 36.1883Z" fill="black"/>
<path d="M27.494 43.3855L60.6733 60.9094L43.6136 70.2459L10.4343 52.7222L27.494 43.3855Z" fill="white"/>
<path d="M43.6137 70.5148C43.57 70.5148 43.5268 70.5041 43.4882 70.4836L10.3089 52.9597C10.266 52.937 10.2301 52.9031 10.205 52.8617C10.1798 52.8202 10.1664 52.7727 10.166 52.7242C10.1657 52.6757 10.1784 52.6281 10.203 52.5862C10.2275 52.5444 10.2629 52.51 10.3054 52.4867L27.3651 43.15C27.4041 43.1286 27.4477 43.1172 27.4922 43.1169C27.5366 43.1166 27.5804 43.1274 27.6197 43.1483L60.799 60.6722C60.8418 60.6949 60.8777 60.7288 60.9029 60.7702C60.928 60.8117 60.9415 60.8592 60.9418 60.9077C60.9422 60.9561 60.9294 61.0038 60.9049 61.0456C60.8803 61.0875 60.8449 61.1219 60.8024 61.1452L43.7428 70.4819C43.7032 70.5035 43.6588 70.5148 43.6137 70.5148ZM11.0021 52.718L43.6114 69.9409L60.106 60.9136L27.4965 43.6907L11.0021 52.718Z" fill="black"/>
<path d="M93.8028 43.3855L60.6235 60.9094L77.6832 70.2459L110.863 52.7222L93.8028 43.3855Z" fill="white"/>
<path d="M77.6831 70.5148C77.638 70.5148 77.5936 70.5035 77.5541 70.4819L60.4944 61.1452C60.4519 61.1219 60.4165 61.0875 60.3919 61.0456C60.3674 61.0038 60.3546 60.9561 60.355 60.9077C60.3553 60.8592 60.3688 60.8117 60.3939 60.7702C60.4191 60.7288 60.455 60.6949 60.4978 60.6722L93.6771 43.1483C93.7164 43.1274 93.7602 43.1166 93.8046 43.1169C93.8491 43.1172 93.8927 43.1286 93.9317 43.15L110.991 52.4867C111.034 52.51 111.069 52.5444 111.094 52.5862C111.118 52.6281 111.131 52.6757 111.131 52.7242C111.13 52.7727 111.117 52.8202 111.092 52.8617C111.067 52.9031 111.031 52.937 110.988 52.9597L77.8086 70.4836C77.77 70.5041 77.7269 70.5148 77.6831 70.5148ZM61.1913 60.9136L77.6857 69.9409L110.295 52.718L93.8006 43.6907L61.1913 60.9136Z" fill="black"/>
<path d="M60.6749 25.8621L27.4956 43.3857L60.6248 60.9096L93.8041 43.3857L60.6749 25.8621Z" fill="black"/>
<path d="M60.8925 60.9092H60.355V93.0497H60.8925V60.9092Z" fill="black"/>
<path d="M42.0363 41.7942C41.9918 41.7943 41.9484 41.7804 41.9123 41.7545C41.8657 41.7215 41.8342 41.6714 41.8246 41.6152C41.815 41.559 41.8281 41.5013 41.8611 41.4547C41.9009 41.3986 45.7869 35.7806 41.4487 30.6589C40.6809 29.7477 39.723 29.0154 38.6424 28.5134C37.5617 28.0114 36.3843 27.7518 35.1928 27.7527H35.1343C35.5462 29.1839 35.4727 30.4564 34.8894 31.4326C34.6408 31.8737 34.274 32.2366 33.8303 32.4805C33.3866 32.7244 32.8836 32.8395 32.378 32.813C31.9594 32.7787 31.56 32.6231 31.2285 32.3652C30.897 32.1074 30.648 31.7584 30.5118 31.3612C30.0347 30.1166 30.5333 28.91 31.8475 28.1323C32.68 27.6731 33.6051 27.4071 34.5544 27.3537C34.2456 26.535 33.844 25.7543 33.3576 25.027C31.7912 22.6347 28.9364 20.9786 25.5249 20.4834C22.6338 20.0639 19.8631 20.5581 18.4653 21.7419C18.4217 21.7788 18.3653 21.7968 18.3085 21.7921C18.2517 21.7873 18.199 21.7602 18.1622 21.7167C18.1254 21.6731 18.1073 21.6167 18.1121 21.5599C18.1168 21.5031 18.1439 21.4504 18.1875 21.4136C19.675 20.1538 22.5792 19.6212 25.5866 20.059C29.12 20.572 32.0834 22.2971 33.7175 24.7924C34.2473 25.5838 34.6782 26.437 35.0007 27.333C36.2862 27.3022 37.5621 27.5601 38.7347 28.0877C39.9072 28.6154 40.9464 29.3994 41.7757 30.382C46.3326 35.7615 42.2524 41.6457 42.2107 41.7046C42.1908 41.7323 42.1646 41.7548 42.1343 41.7704C42.104 41.786 42.0704 41.7942 42.0363 41.7942ZM34.6939 27.7684C33.7736 27.8077 32.8748 28.0589 32.0675 28.5025C30.933 29.1738 30.5129 30.1599 30.9143 31.2074C31.0231 31.5284 31.2231 31.8107 31.4898 32.0198C31.7565 32.229 32.0784 32.3558 32.416 32.3849C32.8412 32.4039 33.2632 32.3043 33.635 32.0972C34.0068 31.8901 34.3137 31.5837 34.5213 31.2122C35.0566 30.3155 35.1057 29.1237 34.6933 27.7684H34.6939Z" fill="#262626"/>
<path d="M14.7559 25.2085C14.3905 25.3183 13.9967 25.2811 13.6583 25.1048C13.32 24.9286 13.0637 24.6272 12.9443 24.2649C12.8248 23.9025 12.8514 23.5079 13.0186 23.1649C13.1857 22.822 13.4802 22.5578 13.8392 22.4287C14.1982 22.2996 14.5934 22.3157 14.9407 22.4736C15.288 22.6316 15.5599 22.9188 15.6986 23.2743C15.8373 23.6297 15.8317 24.0252 15.6831 24.3766C15.5345 24.728 15.2546 25.0075 14.903 25.1556C14.8549 25.1759 14.8058 25.1935 14.7559 25.2085ZM14.041 22.8192C14.0061 22.8297 13.9719 22.842 13.9384 22.8562C13.691 22.9605 13.4941 23.1573 13.3896 23.4046C13.2852 23.652 13.2814 23.9303 13.3791 24.1804C13.4769 24.4305 13.6684 24.6325 13.9129 24.7435C14.1573 24.8544 14.4355 24.8656 14.6881 24.7745C14.9406 24.6834 15.1477 24.4973 15.2651 24.2559C15.3825 24.0144 15.401 23.7366 15.3166 23.4818C15.2322 23.2269 15.0517 23.015 14.8134 22.8912C14.5752 22.7675 14.298 22.7416 14.041 22.8192Z" fill="#262626"/>
<path d="M14.7523 21.8392C14.4066 21.9424 14.035 21.9142 13.7089 21.76C13.3828 21.6058 13.1253 21.3365 12.9857 21.0039C12.8738 20.7372 12.8435 20.4434 12.8986 20.1595C12.9538 19.8756 13.0918 19.6144 13.2954 19.409C13.499 19.2036 13.7589 19.0632 14.0423 19.0055C14.3256 18.9478 14.6198 18.9754 14.8874 19.0849C15.1551 19.1944 15.3843 19.3808 15.546 19.6205C15.7078 19.8602 15.7948 20.1426 15.796 20.4317C15.7973 20.7209 15.7128 21.004 15.5532 21.2452C15.3936 21.4863 15.166 21.6747 14.8994 21.7866C14.8513 21.8067 14.8022 21.8243 14.7523 21.8392ZM14.0382 19.4498C14.003 19.4603 13.9683 19.4727 13.9344 19.487C13.6821 19.5929 13.4823 19.7947 13.3787 20.0479C13.2752 20.3012 13.2764 20.5852 13.3822 20.8375C13.4593 21.0214 13.5881 21.179 13.7529 21.2913C13.9178 21.4036 14.1116 21.4657 14.311 21.4702C14.5104 21.4746 14.7068 21.4212 14.8765 21.3163C15.0462 21.2115 15.1818 21.0597 15.2671 20.8794C15.3523 20.6991 15.3835 20.4979 15.3568 20.3002C15.3301 20.1026 15.2467 19.9169 15.1167 19.7656C14.9867 19.6144 14.8156 19.504 14.6242 19.4479C14.4328 19.3918 14.2293 19.3926 14.0382 19.4498Z" fill="#262626"/>
<path d="M14.335 23.3599C15.391 23.3599 16.247 22.7882 16.247 22.0829C16.247 21.3776 15.391 20.8059 14.335 20.8059C13.2791 20.8059 12.4231 21.3776 12.4231 22.0829C12.4231 22.7882 13.2791 23.3599 14.335 23.3599Z" fill="white"/>
<path d="M15.1815 23.4538C14.9074 23.5348 14.623 23.5756 14.3372 23.575C13.1443 23.575 12.2085 22.9214 12.2085 22.0848C12.2085 21.2481 13.1415 20.5921 14.3339 20.5908C14.8538 20.5809 15.3654 20.7228 15.8057 20.9994C16.0035 21.1024 16.1693 21.2577 16.285 21.4483C16.4008 21.6389 16.4621 21.8576 16.4623 22.0806C16.4625 22.3036 16.4016 22.5225 16.2862 22.7133C16.1708 22.9041 16.0053 23.0597 15.8077 23.1631C15.6145 23.2904 15.4035 23.3884 15.1815 23.4538ZM13.6201 21.1232C13.0456 21.2952 12.6383 21.6666 12.6385 22.0837C12.6385 22.6593 13.4162 23.145 14.3372 23.1442C14.7722 23.1533 15.2005 23.0356 15.5696 22.8053C15.7081 22.7415 15.8254 22.6394 15.9075 22.5109C15.9897 22.3825 16.0333 22.2332 16.0331 22.0808C16.033 21.9284 15.9891 21.7792 15.9068 21.6509C15.8244 21.5226 15.7069 21.4207 15.5684 21.3571C15.1989 21.1274 14.7704 21.0103 14.3354 21.0204C14.0933 21.0198 13.8523 21.0544 13.6201 21.1232Z" fill="#262626"/>
<path d="M14.8048 23.3209L14.7596 20.8374L14.1421 20.8125L14.0989 23.3499L14.8048 23.3209Z" fill="#262626"/>
<path d="M11.7989 22.623C11.908 22.623 11.9963 22.5347 11.9963 22.4257C11.9963 22.3166 11.908 22.2283 11.7989 22.2283C11.6899 22.2283 11.6016 22.3166 11.6016 22.4257C11.6016 22.5347 11.6899 22.623 11.7989 22.623Z" fill="#262626"/>
<path d="M11.9537 21.5669C12.0627 21.5669 12.1511 21.4785 12.1511 21.3695C12.1511 21.2605 12.0627 21.1721 11.9537 21.1721C11.8447 21.1721 11.7563 21.2605 11.7563 21.3695C11.7563 21.4785 11.8447 21.5669 11.9537 21.5669Z" fill="#262626"/>
<path d="M75.8217 29.3944C75.7757 29.3944 75.7309 29.3796 75.6939 29.3523C75.6569 29.3249 75.6296 29.2864 75.6161 29.2424C74.9029 26.5791 74.7127 23.8029 75.0558 21.0672C75.6116 17.0679 77.8173 11.8191 85.1681 9.5208C86.2024 9.18826 87.2633 8.94504 88.3391 8.79383C88.6855 6.63054 90.0032 4.28384 92.95 2.66476C99.9514 -1.18233 104.681 2.26935 104.728 2.30461C104.773 2.33882 104.803 2.38976 104.811 2.44621C104.819 2.50267 104.805 2.56001 104.771 2.60563C104.736 2.65125 104.685 2.68141 104.629 2.68948C104.572 2.69754 104.515 2.68285 104.47 2.64864C104.425 2.61509 99.9051 -0.666285 93.1572 3.0419C90.4037 4.55498 89.1433 6.72665 88.7849 8.74265C92.0271 8.42335 93.5797 9.50489 94.2766 10.3217C94.7078 10.813 94.9848 11.4202 95.0733 12.0678C95.1618 12.7153 95.0578 13.3746 94.7742 13.9635C94.5501 14.4395 94.1869 14.8362 93.7325 15.1015C93.2782 15.3667 92.7541 15.4879 92.2294 15.449C90.4188 15.3428 88.9203 13.8196 88.4125 11.5684C88.2449 10.8063 88.2003 10.0224 88.2804 9.24622C87.2685 9.3916 86.2704 9.6211 85.2966 9.93234C79.5675 11.7237 76.2659 15.4905 75.4815 21.1276C75.1455 23.8012 75.3308 26.5146 76.0272 29.1177C76.0371 29.1498 76.0393 29.1838 76.0336 29.217C76.0279 29.2501 76.0146 29.2815 75.9946 29.3085C75.9746 29.3356 75.9485 29.3575 75.9185 29.3727C75.8885 29.3878 75.8553 29.3957 75.8217 29.3957V29.3944ZM88.7189 9.19247C88.6293 9.95384 88.6675 10.7248 88.832 11.4736C89.2966 13.533 90.64 14.9248 92.2546 15.0197C92.6947 15.0512 93.134 14.949 93.5149 14.7264C93.8959 14.5039 94.2006 14.1714 94.3893 13.7726C94.6351 13.259 94.7244 12.6846 94.6461 12.1207C94.5678 11.5568 94.3254 11.0284 93.9489 10.6013C92.9435 9.42146 91.1088 8.94498 88.7189 9.19247Z" fill="#262626"/>
<path d="M109.736 4.47755C109.446 4.47695 109.162 4.39446 108.918 4.23961C108.673 4.08477 108.477 3.86388 108.352 3.60243C108.228 3.34099 108.18 3.04965 108.214 2.76204C108.248 2.47443 108.362 2.20227 108.544 1.97698C108.726 1.75169 108.968 1.58244 109.242 1.48878C109.516 1.39512 109.811 1.38086 110.093 1.44764C110.375 1.51442 110.632 1.65953 110.835 1.86621C111.038 2.07289 111.178 2.33272 111.239 2.61572C111.288 2.84005 111.285 3.07232 111.232 3.29552C111.179 3.51873 111.076 3.72721 110.932 3.9057C110.788 4.0842 110.606 4.22819 110.399 4.32714C110.192 4.42608 109.965 4.47748 109.736 4.47755ZM109.739 1.83628C109.51 1.83628 109.287 1.9072 109.1 2.03929C108.914 2.17137 108.772 2.35811 108.696 2.57377C108.62 2.78943 108.613 3.02338 108.675 3.2434C108.738 3.46341 108.867 3.65865 109.045 3.8022C109.223 3.94575 109.441 4.03055 109.669 4.04491C109.898 4.05927 110.125 4.00248 110.319 3.88237C110.514 3.76227 110.666 3.58475 110.756 3.3743C110.845 3.16385 110.868 2.93081 110.819 2.70732C110.767 2.46004 110.631 2.23839 110.434 2.07973C110.237 1.92107 109.992 1.83509 109.739 1.83628Z" fill="#262626"/>
<path d="M109.088 7.98689C108.694 7.98686 108.315 7.83575 108.029 7.56466C107.743 7.29357 107.571 6.92314 107.55 6.52961C107.529 6.13609 107.66 5.74944 107.915 5.44924C108.17 5.14905 108.531 4.95816 108.923 4.91588C109.315 4.87359 109.708 4.98313 110.021 5.22195C110.335 5.46076 110.545 5.81067 110.608 6.19965C110.671 6.58862 110.583 6.98706 110.361 7.31293C110.14 7.6388 109.802 7.86731 109.417 7.95142C109.309 7.97499 109.198 7.98689 109.088 7.98689ZM109.093 5.34541C109.014 5.34544 108.934 5.35402 108.857 5.37099C108.582 5.43132 108.341 5.59461 108.183 5.82729C108.025 6.05996 107.962 6.34431 108.008 6.62184C108.053 6.89936 108.203 7.14895 108.427 7.31925C108.651 7.48955 108.931 7.56761 109.211 7.53737C109.49 7.50712 109.748 7.37087 109.93 7.15666C110.112 6.94244 110.205 6.66655 110.19 6.38574C110.175 6.10494 110.053 5.84059 109.849 5.64707C109.645 5.45355 109.375 5.34559 109.093 5.34541Z" fill="#262626"/>
<path d="M111.397 5.10567C111.533 4.37125 110.751 3.61139 109.651 3.40848C108.552 3.20558 107.551 3.63647 107.415 4.37089C107.28 5.10531 108.061 5.86517 109.161 6.06807C110.26 6.27098 111.262 5.8401 111.397 5.10567Z" fill="white"/>
<path d="M109.702 6.33373C109.508 6.33342 109.313 6.31542 109.122 6.27998C108.581 6.19026 108.078 5.94471 107.675 5.57343C107.499 5.42283 107.363 5.23017 107.281 5.01325C107.198 4.79632 107.172 4.56214 107.204 4.33235C107.256 4.10624 107.364 3.8969 107.519 3.72365C107.673 3.5504 107.868 3.41884 108.087 3.34112C108.599 3.14794 109.153 3.09828 109.691 3.19749C110.228 3.29671 110.729 3.54103 111.137 3.90404C111.314 4.05463 111.45 4.24729 111.532 4.46422C111.614 4.68114 111.641 4.91532 111.609 5.14511C111.557 5.37122 111.448 5.58057 111.294 5.75381C111.14 5.92706 110.944 6.05862 110.726 6.13634C110.401 6.27052 110.053 6.33766 109.702 6.33373ZM109.109 3.57334C108.817 3.56963 108.527 3.62499 108.257 3.73611C108.104 3.78725 107.966 3.87569 107.856 3.99343C107.746 4.11117 107.668 4.25448 107.627 4.4104C107.609 4.57056 107.632 4.73259 107.693 4.88183C107.753 5.03106 107.85 5.16279 107.975 5.26509C108.323 5.56865 108.746 5.77305 109.2 5.85684C109.654 5.94064 110.122 5.90075 110.555 5.74136C110.708 5.69021 110.845 5.60177 110.955 5.48403C111.065 5.3663 111.144 5.22298 111.185 5.06706C111.203 4.9069 111.18 4.74483 111.12 4.59557C111.059 4.44631 110.962 4.31459 110.837 4.21237C110.495 3.90012 110.069 3.69441 109.612 3.62043C109.446 3.58959 109.278 3.57383 109.109 3.57334H109.109Z" fill="#262626"/>
<path d="M109.158 3.35913L108.726 5.95353L109.364 6.09888L109.899 3.46513L109.158 3.35913Z" fill="#262626"/>
<path d="M111.75 6.15017C111.865 6.15017 111.959 6.0566 111.959 5.94117C111.959 5.82575 111.865 5.73218 111.75 5.73218C111.634 5.73218 111.541 5.82575 111.541 5.94117C111.541 6.0566 111.634 6.15017 111.75 6.15017Z" fill="#262626"/>
<path d="M112.114 5.08035C112.23 5.08035 112.323 4.98678 112.323 4.87135C112.323 4.75592 112.23 4.66235 112.114 4.66235C111.999 4.66235 111.905 4.75592 111.905 4.87135C111.905 4.98678 111.999 5.08035 112.114 5.08035Z" fill="#262626"/>
</svg>
