<svg width="101" height="101" viewBox="0 0 101 101" fill="none" xmlns="http://www.w3.org/2000/svg">
<circle opacity="0.1" cx="50.5" cy="50.5" r="50.5" fill="#00AD26"/>
<circle opacity="0.2" cx="50.5001" cy="50.5" r="39.9913" fill="#00AD26"/>
<circle cx="50.4999" cy="50.5" r="34.737" fill="#00871E"/>
<path fill-rule="evenodd" clip-rule="evenodd" d="M63.5756 40.8067C63.9937 41.1571 64.0473 41.7787 63.6953 42.1949L48.3179 60.3843C48.1267 60.6104 47.8435 60.7392 47.5467 60.7349C47.2498 60.7306 46.9705 60.5938 46.7859 60.3622L39.3302 51.0077C38.9905 50.5815 39.0621 49.9618 39.4901 49.6235C39.9181 49.2852 40.5405 49.3565 40.8802 49.7827L47.5835 58.1932L62.1815 40.9259C62.5334 40.5096 63.1576 40.4562 63.5756 40.8067Z" fill="#E7EDF0"/>
<path fill-rule="evenodd" clip-rule="evenodd" d="M61.6242 40.4548C62.2359 39.7312 63.3189 39.6392 64.0445 40.2474C64.7719 40.8572 64.8659 41.9407 64.2527 42.6661L63.7042 42.2024L64.2527 42.6661L48.8752 60.8554C48.5426 61.2489 48.0509 61.472 47.5362 61.4646C47.0216 61.4572 46.5365 61.22 46.2153 60.8171L38.7596 51.4626C38.1675 50.7197 38.2931 49.6394 39.0377 49.0509C39.7805 48.4639 40.8604 48.5869 41.451 49.3279L47.6002 57.0432L61.6242 40.4548ZM63.1069 41.366C62.9964 41.2734 62.831 41.288 62.7388 41.3971L48.1409 58.6643C47.9998 58.8312 47.7915 58.926 47.573 58.9229C47.3546 58.9197 47.1491 58.8189 47.0129 58.648L40.3096 50.2376C40.2208 50.1261 40.0559 50.1065 39.9427 50.1961L39.4933 49.6275L39.9427 50.1961C39.8313 50.2841 39.8136 50.4433 39.9009 50.5529L47.3567 59.9074C47.4047 59.9676 47.4781 60.0041 47.5572 60.0052C47.6363 60.0063 47.7109 59.972 47.7606 59.9131L63.1381 41.7238C63.2287 41.6166 63.2155 41.457 63.1069 41.366Z" fill="#E7EDF0"/>
</svg>
